<?xml version="1.0" encoding="UTF-8" standalone="no"?>
<!-- Created with Inkscape (http://www.inkscape.org/) -->

<svg
   version="1.1"
   id="svg30192"
   width="133.12"
   height="133.12"
   viewBox="0 0 133.12 133.12"
   sodipodi:docname="iconplay.svg"
   inkscape:version="1.1 (c68e22c387, 2021-05-23)"
   xmlns:inkscape="http://www.inkscape.org/namespaces/inkscape"
   xmlns:sodipodi="http://sodipodi.sourceforge.net/DTD/sodipodi-0.dtd"
   xmlns="http://www.w3.org/2000/svg"
   xmlns:svg="http://www.w3.org/2000/svg">
  <defs
     id="defs30196" />
  <sodipodi:namedview
     id="namedview30194"
     pagecolor="#ffffff"
     bordercolor="#666666"
     borderopacity="1.0"
     inkscape:pageshadow="2"
     inkscape:pageopacity="0.0"
     inkscape:pagecheckerboard="0"
     showgrid="false"
     inkscape:zoom="2.9002428"
     inkscape:cx="130.50632"
     inkscape:cy="88.785671"
     inkscape:window-width="1366"
     inkscape:window-height="705"
     inkscape:window-x="-8"
     inkscape:window-y="174"
     inkscape:window-maximized="1"
     inkscape:current-layer="g30198" />
  <g
     inkscape:groupmode="layer"
     inkscape:label="Image"
     id="g30198">
    <path
       style="fill:#02ce05;stroke:none;stroke-width:0.32;fill-opacity:1"
       d="m 60.824798,7.44621 c -9.28224,1.233632 -18.04096,3.950304 -25.92,9.145184 -6.700672,4.418016 -12.39568,9.952512 -16.853344,16.639008 -21.1355799,31.70336 -5.89834,77.174088 30.933344,88.632008 8.40032,2.61312 17.52064,3.33216 26.24,2.15776 8.26688,-1.1136 16.3728,-4.09888 23.36,-8.65984 C 132.14832,93.450887 134.54192,43.968322 102.7448,19.286466 96.858398,14.71725 90.053278,11.375394 82.904798,9.32349 c -6.90656,-1.9824 -14.92352,-2.828416 -22.08,-1.87728 m 2.88,11.155552 c 5.71104,-0.674208 12.17472,0.356512 17.6,2.148896 31.735362,10.484608 44.216642,52.269184 20.488002,77.114949 -3.329922,3.486723 -6.956482,6.711043 -11.208002,9.038403 -5.5728,3.05056 -11.56544,5.26272 -17.92,5.95328 -10.67872,1.16032 -21.5216,-1.00736 -30.72,-6.68768 C 19.741314,92.457927 12.811454,61.748802 27.226046,39.950402 c 3.366048,-5.09024 7.772832,-9.641696 12.798752,-13.11184 7.16608,-4.947904 15.13408,-7.227936 23.68,-8.2368 m -12.48,19.91088 c -5.49856,0.78976 -5.12,6.5296 -5.12,10.71776 v 33.92 c 0,4.11392 0.18656,10.532165 6.08,10.115205 3.64896,-0.25856 7.4688,-3.502405 10.56,-5.267205 7.70176,-4.39616 15.34656,-8.89216 23.04,-13.30272 3.07936,-1.76544 8.84256,-3.80512 9.2464,-7.86528 0.4944,-4.97152 -3.95616,-6.76768 -7.6464,-8.87008 -8.55872,-4.87648 -17.04512,-9.87872 -25.6,-14.76192 -2.9232,-1.66848 -6.98304,-5.19968 -10.56,-4.68576 z"
       id="path30920" />
    <path
       style="fill:#000000;stroke-width:0.32"
       id="path30330"
       d="" />
    <path
       style="fill:#000000;stroke-width:0.32"
       id="path30274"
       d="" />
  </g>
</svg>
